<svg xmlns="http://www.w3.org/2000/svg" xmlns:xlink="http://www.w3.org/1999/xlink" width="440.856" height="784.565" viewBox="0 0 440.856 784.565"><defs><style>.a{fill:#ffc1c7;}.b{opacity:0.1;}.c{fill:url(#a);}.d{fill:#f2f2f2;}.e{fill:#3f3d56;}.f{fill:url(#b);}.g{fill:#2f2e41;}.h{fill:#6c63ff;}.i{fill:#192534;}.j{fill:url(#c);}.k{fill:#fff;}</style><linearGradient id="a" x1="0.219" y1="0.067" x2="1" y2="0.938" gradientUnits="objectBoundingBox"><stop offset="0" stop-color="#2f2e41"/><stop offset="1" stop-color="#09090d"/></linearGradient><linearGradient id="b" x1="0.149" y1="0.153" x2="0.904" y2="1" gradientUnits="objectBoundingBox"><stop offset="0" stop-color="#fff500"/><stop offset="1" stop-color="#ffb100"/></linearGradient><linearGradient id="c" x1="0.5" x2="0.297" y2="1" gradientUnits="objectBoundingBox"><stop offset="0" stop-color="#9ff770"/><stop offset="1" stop-color="#00d8ff"/></linearGradient></defs><g transform="translate(-314.474 -103.913)"><g transform="translate(496.916 166.162)"><path class="a" d="M707.48,291.606s-49.309,35.717-49.309,23.807c0-7.11-8.6-29.069-15.476-45.41-4.55-10.831-8.3-19.209-8.3-19.209l50.956-13.6a59.5,59.5,0,0,0,.569,24.885A47.97,47.97,0,0,0,707.48,291.606Z" transform="translate(-617.359 -187.869)"/><path class="b" d="M681.327,254.74c-7.276,6.79-12.419,18.309-23.155,18.309A40.54,40.54,0,0,1,642.7,270c-4.55-10.831-8.3-19.209-8.3-19.209l50.956-13.6C683.7,246.931,679.585,247.82,681.327,254.74Z" transform="translate(-617.359 -187.869)"/><circle class="a" cx="40.812" cy="40.812" r="40.812"/><ellipse class="a" cx="8.189" cy="12.277" rx="8.189" ry="12.277" transform="translate(61.408 29.116)"/></g><g transform="translate(481.609 103.913)"><path class="c" d="M610.536,217.471c-2.37,7.442,5.3,14.967,13.035,15.749s15.239-2.927,22.326-6.245,15-6.423,22.575-4.408c8.3,2.192,13.817,9.907,17.5,17.609a87.837,87.837,0,0,1,6.98,21.188c1.517,7.845,2.216,16.472,7.608,22.4s14.339,7.525,22.515,7.489,16.448-1.185,24.329.83c15.642,4.077,25.324,19.66,30.905,34.792s8.935,31.616,19.043,44.213c8.425,10.523,20.714,17.195,33.026,22.729,6.209,2.785,12.644,5.38,19.423,6.02s14.054-.936,18.96-5.581c5.534-5.19,7.312-13.106,8.817-20.525,2.192-10.76,4.385-21.816,2.572-32.659-2.37-14.22-11.507-26.722-13.6-41-2.038-13.888,2.761-27.907,2.275-41.938-.818-23.487-18.107-45.5-40.777-51.94-8.3-2.37-17.005-2.8-24.968-5.925-10.381-4.136-18.38-12.455-26.865-19.719a163.4,163.4,0,0,0-70.521-35.231c-17.467-3.875-38.134-3.934-50.482,8.971-5.013,5.25-8.3,12.348-14.694,15.856-3.282,1.813-7.051,2.465-10.582,3.685-17.443,6-27.469,27.73-20.7,44.841" transform="translate(-607.104 -143.04)"/><path class="b" d="M860.04,376.948c-6.778-.64-13.213-3.235-19.423-6.02-12.312-5.534-24.589-12.206-33.026-22.729-10.108-12.6-13.474-29.069-19.043-44.213s-15.263-30.716-30.905-34.792c-7.88-2.062-16.187-.865-24.328-.83s-17.005-1.469-22.516-7.489-6.091-14.552-7.608-22.4a87.7,87.7,0,0,0-6.98-21.188c-3.685-7.7-9.231-15.405-17.5-17.609-7.572-2.015-15.488,1.09-22.575,4.408s-14.528,7.027-22.326,6.245-15.405-8.3-13.035-15.749l-1.185,1.185a32.826,32.826,0,0,1-.806-20.939c-10.037,9.421-14.528,25-9.409,37.921l1.185-1.185c-2.37,7.442,5.3,14.967,13.035,15.749s15.239-2.927,22.326-6.245,15-6.423,22.575-4.408c8.3,2.192,13.817,9.907,17.5,17.609a87.826,87.826,0,0,1,6.98,21.188c1.517,7.845,2.216,16.472,7.608,22.4s14.339,7.525,22.515,7.489,16.448-1.185,24.329.83c15.642,4.076,25.324,19.66,30.905,34.792s8.935,31.616,19.043,44.213c8.426,10.523,20.714,17.195,33.027,22.729,6.209,2.785,12.644,5.38,19.422,6.02s14.054-.936,18.96-5.581c4.171-3.911,6.21-9.385,7.608-15.026A25.928,25.928,0,0,1,860.04,376.948Z" transform="translate(-607.078 -137.158)"/></g><g transform="translate(314.474 204.829)"><path class="a" d="M642.855,393.281l-20.406-11.85s-49.321-6.8-42.519-30.609,40.824,0,40.824,0l22.1,15.2Z" transform="translate(-445.115 -207.47)"/><path class="b" d="M642.855,393.281l-20.406-11.85s-49.321-6.8-42.519-30.609,40.824,0,40.824,0l22.1,15.2Z" transform="translate(-445.115 -207.47)"/><path class="a" d="M623.126,538.94s-39.106,86.732-25.514,119.036c0,0-42.507,129.25-56.111,134.346s34.01,13.6,34.01,13.6S631.6,731.1,634.976,671.58s64.643-120.718,64.643-120.718Z" transform="translate(-452.559 -170.706)"/><path class="a" d="M686,572.136s22.1,71.433,51.015,91.839c0,0,59.524,98.629,50.956,129.239,0,0,34.01,5.108,35.717,0,0,0-15.311-107.138-52.722-149.645S750.655,550,750.655,550Z" transform="translate(-425.371 -168.66)"/><path class="d" d="M577.072,755.555s-20.406-17.005-35.7-3.4-42.519,10.2-62.925,3.4-18.7,10.2,28.915,32.3,74.822,27.255,74.822,27.255,6.8-27.255,6.8-34.01,4.231-19.517,4.231-19.517Z" transform="translate(-466.064 -132.232)"/><path class="d" d="M799.007,752.875s-20.406-11.85-23.807,10.2-52.722,35.717-52.722,35.717-23.807,22.1,49.321,15.263,68.02-20.406,68.02-20.406L816.664,749.64Z" transform="translate(-419.306 -131.721)"/><path class="e" d="M638.709,474.4s-52.722,74.822-32.316,83.319,18.711-13.6,39.106,10.2,73.128,11.85,79.93,6.8,23.807-27.255,37.411-25.5S740.7,462.49,740.7,462.49Z" transform="translate(-440.968 -184.851)"/><path class="d" d="M683.932,278.81S666.3,296.7,658.111,297.96s-38.822,53.966-30.3,96.485-10.2,130.945-1.695,136.041,144.573-18.7,144.573-18.7Z" transform="translate(-436.872 -218.836)"/><path class="f" d="M699.227,271.748s-30.609-10.2-40.812,44.213-23.807,8.508-23.807,78.211-5.107,95.24,3.4,154.752,15.3,59.524,5.1,79.93,108.833,15.31,137.747-23.807-8.508-185.361-23.807-207.474-15.311-90.121-27.256-107.126a45.635,45.635,0,0,0-30.562-18.7Z" transform="translate(-435.161 -220.283)"/><path class="g" d="M697.988,603.659l-15.062-18.842L634.85,355.373l32.316-60.318a35.788,35.788,0,0,1,27.469-18.664,35.1,35.1,0,0,1,30.811,11.85c46.773,53.255,70.248,218.388,71.22,225.391l.095.664-4.74,12.336-24.885,55.779Zm-10.322-21.07L699.8,597.758l63.565-19.6,23.89-53.539,4.254-10.985c-1.683-11.59-25.585-171.627-69.916-222.085a30.621,30.621,0,0,0-49.949,5.854L640.218,356.1Z" transform="translate(-434.835 -219.332)"/><path class="h" d="M608.4,366.147h0L564.208,326.84a2.667,2.667,0,0,1-.438-3.46l.545-.829h0a2.37,2.37,0,0,1,3.638-.427l40.291,37.328a4.622,4.622,0,0,1,.154,6.7Z" transform="translate(-448.069 -210.945)"/><path class="i" d="M608.4,365.977h0L564.208,326.67a2.667,2.667,0,0,1-.438-3.46l.545-.83,43.976,39.438a2.856,2.856,0,0,1,.107,4.159Z" transform="translate(-448.069 -210.775)"/><path class="a" d="M729.083,372.551s-62.925-5.1-74.823-27.256-42.519-10.2-34.01,0,6.8,34.01,30.609,35.717,83.319,13.651,83.319,13.651Z" transform="translate(-437.808 -208.852)"/><path class="j" d="M786.264,476.84s-42.519,3.4-52.722,47.614-56.111,22.113-56.111,22.113S672.324,662.2,747.147,633.3s91.839-83.331,91.839-90.133S787.971,495.551,786.264,476.84Z" transform="translate(-426.97 -182.196)"/><path class="b" d="M680.832,555.063s45.872,22.113,56.111-22.1c9.717-42.116,48.716-47.2,52.414-47.591a22.761,22.761,0,0,1-3.093-8.532s-42.519,3.4-52.722,47.614-56.111,22.113-56.111,22.113-1.659,37.743,10.867,64.714C679.493,585.53,680.832,555.063,680.832,555.063Z" transform="translate(-426.97 -182.196)"/><path class="b" d="M821.063,544.3a14.225,14.225,0,0,0,.367-2.56c0-5.818-37.34-36.546-49.19-57.011C774.752,500.538,809.45,530.7,821.063,544.3Z" transform="translate(-409.414 -180.736)"/><path class="k" d="M674.649,293.839s-5.108,37.411,13.6,45.92,32.3,37.364,32.3,37.364l-15.3,3.4s-5.108,23.807,8.5,30.609,51.015,0,51.015,0,17.017-8.508,3.4-35.717-52.7-86.673-52.7-86.673S695.055,266.631,674.649,293.839Z" transform="translate(-427.589 -218.566)"/><g transform="translate(244.646)"><circle class="d" cx="4.088" cy="4.088" r="4.088" transform="translate(3.303)"/><ellipse class="d" cx="4.776" cy="2.05" rx="4.776" ry="2.05" transform="translate(0 13.573) rotate(-63.3)"/></g></g></g></svg>